<svg width="1024" height="1024" viewBox="0 0 1024 1024" fill="none" xmlns="http://www.w3.org/2000/svg">
<g clip-path="url(#clip0_166_9)">
<path d="M307.558 818.842C364.112 818.842 409.958 772.996 409.958 716.442C409.958 659.888 364.112 614.042 307.558 614.042C251.004 614.042 205.158 659.888 205.158 716.442C205.158 772.996 251.004 818.842 307.558 818.842Z" fill="#4ECE52"/>
<path d="M425.216 777.984C524.185 777.984 604.416 697.753 604.416 598.784C604.416 499.815 524.185 419.584 425.216 419.584C326.247 419.584 246.016 499.815 246.016 598.784C246.016 697.753 326.247 777.984 425.216 777.984Z" fill="#C280FF"/>
<path d="M593.562 686.438C734.947 686.438 849.562 571.823 849.562 430.438C849.562 289.053 734.947 174.438 593.562 174.438C452.177 174.438 337.562 289.053 337.562 430.438C337.562 571.823 452.177 686.438 593.562 686.438Z" fill="#005AE3"/>
<path d="M249.19 632.422C244.275 635.853 239.514 639.693 235.162 644.045C195.174 684.032 195.174 748.851 235.162 788.838C275.149 828.826 339.968 828.826 379.955 788.838C384.358 784.435 388.147 779.725 391.578 774.81C357.478 768.307 324.864 751.923 298.496 725.504C272.128 699.085 255.693 666.522 249.19 632.422Z" fill="url(#paint0_radial_166_9)"/>
<path d="M337.869 442.368C323.789 450.253 310.528 460.134 298.547 472.115C254.976 515.686 238.541 576.154 249.242 632.422C255.744 666.522 272.128 699.136 298.547 725.504C324.966 751.872 357.53 768.307 391.629 774.81C447.949 785.51 508.365 769.075 551.936 725.504C563.917 713.523 573.798 700.262 581.683 686.182C520.192 683.315 459.52 658.432 412.57 611.482C365.619 564.531 340.736 503.859 337.869 442.368Z" fill="url(#paint1_radial_166_9)"/>
</g>
<defs>
<radialGradient id="paint0_radial_166_9" cx="0" cy="0" r="1" gradientUnits="userSpaceOnUse" gradientTransform="translate(322.355 688.998) scale(118.682 118.682)">
<stop offset="0.16"/>
<stop offset="0.86" stop-opacity="0"/>
</radialGradient>
<radialGradient id="paint1_radial_166_9" cx="0" cy="0" r="1" gradientUnits="userSpaceOnUse" gradientTransform="translate(475.699 545.792) scale(198.81)">
<stop offset="0.37"/>
<stop offset="0.88" stop-opacity="0"/>
</radialGradient>
<clipPath id="clip0_166_9">
<rect width="1024" height="1024" fill="white"/>
</clipPath>
</defs>
</svg>
